<svg preserveAspectRatio="none" overflow="visible" style="display: block;" width="20.0355" height="20.0001" viewBox="0 0 20.0355 20.0001" fill="none" xmlns="http://www.w3.org/2000/svg">
<path id="Vector" d="M15.25 1.5L12.75 5.25C12.25 4.9842 11.25 4.49995 10 4.49995C7 4.49995 4.5 6.99995 4.5 9.74995C4.5 12.5 6.5 15.5003 10 15.5003C12.8 15.5003 14.75 13.5002 14.75 12.0002H10V8.5001C13.5 8.50015 20 8.49995 20 8.49995C20.25 12.2501 19.1448 14.4502 17.75 16.25C15.6621 18.9441 12.5856 20.0001 10 20.0001C5 20.0001 0 16.0003 0 9.74995C0 3.75 5.36185 0 9.5 0C13.6382 0 15.25 1.5 15.25 1.5Z" fill="#333333"/>
</svg>
